<?xml version="1.0" standalone="no"?>
<!DOCTYPE svg PUBLIC "-//W3C//DTD SVG 20010904//EN"
 "http://www.w3.org/TR/2001/REC-SVG-20010904/DTD/svg10.dtd">
<svg version="1.0" xmlns="http://www.w3.org/2000/svg"
 width="700.000000pt" height="700.000000pt" viewBox="0 0 700.000000 700.000000"
 preserveAspectRatio="xMidYMid meet">
<metadata>
Created by potrace 1.11, written by Peter Selinger 2001-2013
</metadata>
<g transform="translate(0.000000,700.000000) scale(0.100000,-0.100000)"
fill="#000000" stroke="none">
<path d="M5353 6963 c-23 -15 -103 -88 -178 -160 -74 -73 -143 -133 -153 -133
-9 0 -44 20 -77 45 -33 25 -62 45 -65 45 -6 0 -172 -174 -265 -277 -28 -32
-56 -53 -68 -53 -11 0 -57 24 -101 54 -242 163 -519 268 -821 312 -106 16
-460 8 -550 -11 -11 -3 -31 -7 -45 -9 -561 -98 -1050 -459 -1283 -946 -71
-149 -126 -327 -143 -463 -3 -23 -7 -53 -10 -67 -4 -27 -5 -342 0 -375 14
-105 21 -141 37 -215 46 -202 123 -382 267 -624 112 -186 122 -206 197 -356
111 -222 217 -509 261 -710 4 -19 9 -39 10 -45 19 -81 17 -89 -29 -150 -25
-33 -77 -97 -117 -143 -115 -133 -87 -116 101 62 145 136 349 339 349 347 0 4
-37 10 -82 14 -188 16 -218 23 -218 45 0 15 32 63 60 90 3 3 50 54 105 115 55
60 109 119 120 131 22 22 180 196 205 224 15 16 164 179 225 244 17 18 77 84
135 146 58 63 112 121 120 130 86 90 149 169 139 172 -7 2 -92 3 -189 0 -210
-4 -218 -1 -168 69 17 24 61 76 98 114 37 39 91 96 121 128 30 32 72 78 94
101 22 23 67 72 100 107 33 36 117 125 186 199 69 74 153 164 185 199 32 35
74 80 93 100 80 86 238 256 260 280 20 21 242 258 276 295 7 7 10 60 8 136 -3
142 11 220 49 278 46 69 271 292 295 292 12 0 47 -20 77 -45 31 -25 59 -45 62
-45 4 0 69 65 146 144 173 180 202 200 264 193 65 -7 98 -42 98 -101 0 -53
-18 -77 -199 -264 -97 -100 -120 -130 -112 -142 5 -8 37 -39 71 -67 33 -29 88
-78 121 -108 33 -30 63 -55 68 -55 4 0 76 69 160 154 83 84 167 161 186 171
69 35 154 -1 167 -72 11 -59 0 -75 -201 -281 -66 -68 -122 -126 -124 -128 -3
-2 24 -31 59 -64 l63 -59 -18 -28 c-24 -37 -146 -154 -212 -205 -58 -45 -199
-108 -282 -128 -30 -7 -92 -13 -137 -14 l-83 -2 -138 -109 c-76 -60 -143 -114
-149 -120 -7 -5 -23 -18 -37 -28 -13 -10 -62 -48 -108 -85 -47 -37 -138 -110
-204 -162 -66 -52 -122 -97 -125 -100 -3 -3 -26 -21 -52 -40 -69 -51 -67 -57
15 -59 40 -1 88 -4 107 -6 19 -2 88 -6 153 -9 120 -7 167 -17 167 -37 0 -10
-40 -52 -91 -94 -13 -11 -116 -99 -229 -195 -113 -96 -230 -195 -260 -220 -29
-25 -58 -49 -64 -55 -15 -14 -135 -115 -165 -140 -14 -11 -43 -36 -65 -56 -23
-19 -147 -125 -276 -233 -129 -109 -241 -204 -248 -210 -9 -9 59 -12 284 -11
163 0 301 -3 307 -7 27 -16 -30 -64 -311 -260 -163 -114 -452 -315 -642 -447
-190 -132 -356 -249 -369 -258 -13 -10 -34 -25 -46 -33 -13 -8 -57 -40 -100
-70 -75 -54 -84 -72 -24 -51 47 16 62 1 89 -86 13 -43 33 -96 44 -118 32 -62
113 -137 189 -173 l68 -32 600 0 601 0 52 26 c159 80 232 191 269 410 3 16 10
58 16 94 6 36 13 76 16 90 2 14 13 77 24 140 25 140 30 170 37 192 3 9 6 25 8
35 16 81 100 350 131 418 8 17 26 59 40 95 49 118 166 343 258 495 173 285
262 500 307 735 28 144 32 404 10 598 -15 129 -13 137 30 146 272 51 421 136
627 359 l43 45 -62 55 c-59 52 -62 56 -50 78 16 30 61 81 167 189 114 117 135
149 128 202 -10 92 -119 157 -203 122 -18 -8 -95 -76 -171 -151 -77 -76 -150
-142 -164 -147 -20 -8 -32 -3 -77 31 -59 46 -91 75 -127 115 -33 37 -35 33
159 235 54 56 105 114 113 130 40 80 -28 184 -130 199 -31 4 -46 0 -80 -23z"/>
<path d="M2786 1890 c-2 -3 -4 -31 -5 -62 l-2 -58 63 0 c376 -2 1138 1 1157 5
13 2 26 7 29 10 9 8 7 94 -2 102 -9 9 -1236 12 -1240 3z"/>
<path d="M2809 1660 l-26 -5 -1 -225 c-1 -243 3 -271 52 -335 34 -44 101 -83
157 -91 55 -8 783 -9 825 -2 82 15 176 95 198 169 7 24 14 78 16 119 5 149 5
316 0 345 l-6 30 -595 0 c-327 0 -606 -2 -620 -5z"/>
<path d="M5490 1110 c0 -21 31 -70 51 -81 60 -32 131 -11 154 45 19 45 19 46
-6 46 -12 0 -30 -11 -41 -25 -13 -16 -29 -25 -48 -25 -19 0 -35 9 -48 25 -20
25 -62 35 -62 15z"/>
<path d="M1356 979 c-139 -32 -226 -150 -226 -308 0 -141 52 -234 160 -288 56
-29 75 -33 142 -33 54 0 94 6 133 21 l55 20 0 66 0 65 -34 -22 c-91 -56 -213
-44 -263 26 -69 97 -44 272 47 323 52 29 135 27 199 -6 25 -12 47 -23 49 -23
1 0 2 28 2 63 l0 63 -50 18 c-58 21 -158 28 -214 15z"/>
<path d="M1748 967 c-2 -7 -4 -145 -4 -307 l1 -295 175 0 c186 0 216 7 263 57
58 60 45 204 -22 246 -14 9 -28 17 -30 19 -2 1 7 12 21 23 33 25 47 65 43 123
-3 59 -33 100 -87 122 -53 22 -354 31 -360 12z m288 -122 c19 -26 17 -59 -3
-83 -18 -21 -38 -25 -103 -23 l-36 1 2 63 c1 34 2 64 3 66 0 2 29 1 62 -1 45
-3 65 -10 75 -23z m8 -236 c20 -16 26 -29 26 -59 0 -60 -28 -80 -110 -80 l-67
0 1 80 1 80 61 0 c47 0 68 -5 88 -21z"/>
<path d="M2350 668 l0 -308 204 0 204 0 3 33 c2 17 3 44 1 60 l-3 27 -130 0
-129 0 0 70 0 70 119 0 118 0 2 60 c1 43 -2 60 -11 61 -7 0 -62 1 -121 1
l-108 0 3 56 3 57 115 2 c63 0 120 1 125 2 12 1 13 97 1 108 -4 4 -95 8 -202
9 l-194 1 0 -309z"/>
<path d="M2826 971 c-3 -5 0 -97 3 -111 0 -3 43 -5 94 -5 l92 0 0 -248 0 -247
75 0 76 0 -1 248 0 248 79 0 78 1 -4 -164 c-4 -145 -7 -166 -25 -191 -11 -15
-30 -28 -42 -30 -21 -3 -22 -7 -19 -125 l3 -121 43 -1 c23 0 43 5 44 10 0 6 2
30 4 55 1 25 2 50 3 55 1 7 58 10 159 10 l157 0 5 -64 5 -65 43 -1 c23 -1 43
1 43 4 5 26 3 224 -3 233 -4 7 -19 12 -34 13 l-28 0 -1 240 0 240 -155 0 c-92
0 -158 4 -162 10 -8 11 -527 16 -532 6z m722 -313 l-3 -183 -63 -3 -64 -3 6
28 c14 73 18 106 21 213 2 63 4 118 4 123 1 4 24 7 51 7 l50 0 -2 -182z"/>
<path d="M4457 956 c-57 -13 -63 -22 -60 -77 3 -50 5 -54 33 -39 11 6 50 14
85 17 97 8 132 -21 113 -94 -9 -36 -29 -45 -107 -48 l-46 -1 -3 -50 -3 -49 54
-2 c62 -2 116 -25 119 -51 0 -9 2 -24 3 -32 2 -26 -16 -57 -42 -69 -37 -17
-117 -13 -167 9 -52 22 -48 26 -49 -55 0 -38 2 -41 39 -53 49 -17 156 -22 208
-10 85 19 136 84 136 173 0 61 -22 111 -60 134 l-31 19 30 21 c37 27 55 80 47
139 -7 53 -42 96 -91 112 -46 15 -152 18 -208 6z"/>
<path d="M3849 951 c-1 -3 -2 -136 -3 -294 0 -183 3 -291 9 -296 6 -4 37 -7
70 -6 l60 0 85 197 c46 108 86 195 89 193 2 -3 4 -91 4 -198 l0 -192 58 0 59
0 1 120 c1 250 -2 468 -7 476 -2 4 -33 7 -69 7 l-64 -1 -36 -86 c-95 -225
-129 -301 -134 -301 -4 0 -6 87 -6 193 l0 192 -57 1 c-32 0 -58 -2 -59 -5z"/>
<path d="M4991 925 c-6 -16 -33 -106 -61 -200 -27 -93 -64 -213 -80 -266 -17
-52 -30 -97 -30 -100 0 -3 28 -4 62 -4 l62 1 17 54 16 55 84 0 c101 1 119 -2
120 -24 0 -9 5 -32 12 -51 12 -35 12 -35 75 -35 46 -1 61 2 58 11 -4 10 -157
519 -173 576 -4 14 -17 16 -79 15 -73 -1 -74 -1 -83 -32z m113 -220 c15 -55
30 -107 32 -116 3 -13 -6 -15 -58 -13 -49 1 -63 5 -62 16 1 17 57 219 59 215
1 -1 14 -47 29 -102z"/>
<path d="M5394 945 c-2 -5 -2 -140 -1 -300 l2 -290 67 0 c57 -1 68 2 78 20 5
11 46 103 90 205 l79 185 3 -205 3 -205 55 0 55 0 0 300 0 300 -69 0 -69 0
-88 -205 -88 -205 -1 206 0 207 -56 -1 c-31 -1 -58 -6 -60 -12z"/>
<path d="M5952 656 l3 -301 60 0 60 0 0 125 0 125 92 3 92 3 3 -128 3 -128 57
0 c32 -1 59 4 61 10 2 5 3 141 3 300 l-1 290 -62 1 -63 0 0 -113 0 -113 -47
-1 c-64 -2 -116 0 -128 5 -6 2 -10 46 -9 110 1 120 4 115 -84 114 l-42 0 2
-302z"/>
</g>
</svg>
